<svg xmlns="http://www.w3.org/2000/svg" viewBox="0 0 96 96" role="img" aria-labelledby="title desc">
  <title>Brand Mark</title>
  <desc>Soft gradient shield logo</desc>
  <defs>
    <linearGradient id="g1" x1="12" y1="8" x2="84" y2="88" gradientUnits="userSpaceOnUse">
      <stop stop-color="#4f46e5"/>
      <stop offset=".35" stop-color="#22d3ee"/>
      <stop offset="1" stop-color="#22c55e"/>
    </linearGradient>
    <linearGradient id="g2" x1="32" y1="22" x2="72" y2="80" gradientUnits="userSpaceOnUse">
      <stop stop-color="#eef2ff"/>
      <stop offset="1" stop-color="#dbeafe"/>
    </linearGradient>
  </defs>
  <rect width="88" height="88" x="4" y="4" rx="22" fill="url(#g1)" opacity=".95"/>
  <path fill="url(#g2)" d="M28 30c0-5.5 4.5-10 10-10h20c5.5 0 10 4.5 10 10v20c0 10.5-6 20.1-15.4 24.7l-5.6 2.7-5.6-2.7C34 70.1 28 60.5 28 50V30Z"/>
  <path fill="#1f2937" opacity=".1" d="M48 24c-6.6 0-12 5.4-12 12v12c0 7.9 4.5 15.2 11.5 18.6L48 68l.5-.4C55.5 64.8 60 57.5 60 49.6V36c0-6.6-5.4-12-12-12Z"/>
  <circle cx="48" cy="44" r="9" fill="#0f172a" opacity=".16"/>
  <path fill="#fff" d="M43.2 50.8 37 44.6l3.4-3.4 2.8 2.9 8.5-9.1 3.6 3.2-12.1 12.6Z"/>
</svg>
